<svg width="16" height="16" viewBox="0 0 16 16" fill="none" xmlns="http://www.w3.org/2000/svg">
<path d="M12.5 6.5V4.5C12.5 2.0145 10.4855 0 8 0C5.5145 0 3.5 2.0145 3.5 4.5V6.5C2.6715 6.5 2 7.1715 2 8V9.5V10V11V11.5C2 13.9855 4.0145 16 6.5 16H9.5C11.9855 16 14 13.9855 14 11.5V11V10V9.5V8C14 7.171 13.328 6.5 12.5 6.5ZM4.5 4.5C4.5 2.567 6.067 1 8 1C9.933 1 11.5 2.567 11.5 4.5V6.5H10.5V4.501C10.5 3.12 9.381 2.001 8 2.001C6.619 2.001 5.5 3.12 5.5 4.501V6.5H4.5V4.5ZM10 4.5V4.5015V6.5H6V4.501V4.5C6 3.3955 6.8955 2.5 8 2.5C9.1045 2.5 10 3.3955 10 4.5ZM13 9.5V10V11V11.5C13 13.4295 11.4295 15 9.5 15H6.5C4.5705 15 3 13.4295 3 11.5V11V10V9.5V8C3 7.724 3.224 7.5 3.5 7.5C3.8335 7.5 4.1665 7.5 4.5 7.5H11.5C11.833 7.5 12.166 7.5 12.5 7.5C12.7755 7.5 13 7.724 13 8V9.5Z" fill="#8794A4"/>
<path d="M8 9.5C7.448 9.5 7 9.9475 7 10.5C7 10.8035 7.1665 11.38 7.3335 11.836C7.4695 12.207 7.6405 12.499 8 12.499C8.391 12.499 8.5305 12.21 8.667 11.841C8.836 11.384 9 10.8045 9 10.5C9 9.9475 8.552 9.5 8 9.5Z" fill="#8794A4"/>
</svg>
