<svg width="72" height="72" viewBox="0 0 72 72" fill="none" xmlns="http://www.w3.org/2000/svg">
<path d="M56.25 29.25V20.25C56.25 9.06525 47.1848 0 36 0C24.8152 0 15.75 9.06525 15.75 20.25V29.25C12.0218 29.25 9 32.2718 9 36V42.75V45V49.5V51.75C9 62.9348 18.0652 72 29.25 72H42.75C53.9348 72 63 62.9348 63 51.75V49.5V45V42.75V36C63 32.2695 59.976 29.25 56.25 29.25ZM20.25 20.25C20.25 11.5515 27.3015 4.5 36 4.5C44.6985 4.5 51.75 11.5515 51.75 20.25V29.25H47.25V20.2545C47.25 14.04 42.2145 9.0045 36 9.0045C29.7855 9.0045 24.75 14.04 24.75 20.2545V29.25H20.25V20.25ZM45 20.25V20.2568V29.25H27V20.2545V20.25C27 15.2797 31.0297 11.25 36 11.25C40.9703 11.25 45 15.2797 45 20.25ZM58.5 42.75V45V49.5V51.75C58.5 60.4327 51.4327 67.5 42.75 67.5H29.25C20.5673 67.5 13.5 60.4327 13.5 51.75V49.5V45V42.75V36C13.5 34.758 14.508 33.75 15.75 33.75C17.2507 33.75 18.7493 33.75 20.25 33.75H51.75C53.2485 33.75 54.747 33.75 56.25 33.75C57.4897 33.75 58.5 34.758 58.5 36V42.75Z" fill="#DADEE3"/>
<path d="M36 42.75C33.516 42.75 31.5 44.7637 31.5 47.25C31.5 48.6157 32.2492 51.21 33.0007 53.262C33.6127 54.9315 34.3823 56.2455 36 56.2455C37.7595 56.2455 38.3872 54.945 39.0015 53.2845C39.762 51.228 40.5 48.6203 40.5 47.25C40.5 44.7637 38.484 42.75 36 42.75Z" fill="#DADEE3"/>
</svg>
