<svg width="18" height="18" viewBox="0 0 18 18" fill="none" xmlns="http://www.w3.org/2000/svg">
<path d="M16.8937 5.36175C16.7737 5.2875 16.6372 5.25 16.5 5.25C16.3853 5.25 16.2705 5.27625 16.1647 5.32875L14.25 6.2865V6C14.25 4.7595 13.2405 3.75 12 3.75H3.75C2.5095 3.75 1.5 4.7595 1.5 6V12C1.5 13.2405 2.5095 14.25 3.75 14.25H12C13.2405 14.25 14.25 13.2405 14.25 12V11.7135L16.1647 12.6705C16.2705 12.7237 16.3853 12.75 16.5 12.75C16.6372 12.75 16.7737 12.7125 16.8937 12.6383C17.115 12.501 17.25 12.2603 17.25 12V6C17.25 5.73975 17.115 5.499 16.8937 5.36175ZM5.25 10.125C4.62825 10.125 4.125 9.62175 4.125 9C4.125 8.37825 4.62825 7.875 5.25 7.875C5.87175 7.875 6.375 8.37825 6.375 9C6.375 9.62175 5.87175 10.125 5.25 10.125Z" fill="#8794A4"/>
</svg>
