<svg width="18" height="18" viewBox="0 0 18 18" fill="none" xmlns="http://www.w3.org/2000/svg">
<g clip-path="url(#clip0_14_60)">
<path d="M9 18C4.0302 18 0 13.9698 0 9C0 4.0302 4.0302 0 9 0C13.9698 0 18 4.0302 18 9C18 13.9698 13.9698 18 9 18Z" fill="url(#paint0_linear_14_60)"/>
<path d="M9 3.96363C10.6398 3.96363 10.8342 3.96903 11.4822 3.99963C12.0816 4.02663 12.4074 4.12743 12.6234 4.21203C12.9096 4.32363 13.1148 4.45683 13.329 4.67103C13.5432 4.88523 13.6764 5.09043 13.788 5.37663C13.8726 5.59263 13.9716 5.91843 14.0004 6.51783C14.0292 7.16583 14.0364 7.36023 14.0364 9.00003C14.0364 10.6398 14.031 10.8342 14.0004 11.4822C13.9734 12.0816 13.8726 12.4074 13.788 12.6234C13.6764 12.9096 13.5432 13.1148 13.329 13.329C13.1148 13.5432 12.9096 13.6764 12.6234 13.788C12.4074 13.8726 12.0816 13.9716 11.4822 14.0004C10.8342 14.0292 10.6398 14.0364 9 14.0364C7.3602 14.0364 7.1658 14.031 6.5178 14.0004C5.9184 13.9734 5.5926 13.8726 5.3766 13.788C5.0904 13.6764 4.8852 13.5432 4.671 13.329C4.4568 13.1148 4.3236 12.9096 4.212 12.6234C4.1274 12.4074 4.0284 12.0816 3.9996 11.4822C3.9708 10.8342 3.9636 10.6398 3.9636 9.00003C3.9636 7.36023 3.969 7.16583 3.9996 6.51783C4.0266 5.91843 4.1274 5.59263 4.212 5.37663C4.3236 5.09043 4.4568 4.88523 4.671 4.67103C4.8852 4.45683 5.0904 4.32363 5.3766 4.21203C5.5926 4.12743 5.9184 4.02843 6.5178 3.99963C7.1658 3.96903 7.3602 3.96363 9 3.96363ZM9 2.85663C7.3314 2.85663 7.1226 2.86383 6.4674 2.89443C5.814 2.92503 5.3676 3.02763 4.9752 3.18063C4.572 3.33543 4.2282 3.54603 3.888 3.88803C3.546 4.23003 3.3372 4.57203 3.1788 4.97703C3.0276 5.36763 2.9232 5.81403 2.8926 6.46923C2.862 7.12443 2.8548 7.33323 2.8548 9.00183C2.8548 10.6704 2.862 10.8792 2.8926 11.5344C2.9232 12.1878 3.0258 12.6342 3.1788 13.0266C3.3354 13.428 3.546 13.7718 3.888 14.112C4.23 14.454 4.572 14.6628 4.977 14.8212C5.3676 14.9724 5.814 15.0768 6.4692 15.1074C7.1244 15.138 7.3332 15.1452 9.0018 15.1452C10.6704 15.1452 10.8792 15.138 11.5344 15.1074C12.1878 15.0768 12.6342 14.9742 13.0266 14.8212C13.428 14.6646 13.7718 14.454 14.112 14.112C14.454 13.77 14.6628 13.428 14.8212 13.023C14.9724 12.6324 15.0768 12.186 15.1074 11.5308C15.138 10.8756 15.1452 10.6668 15.1452 8.99823C15.1452 7.32963 15.138 7.12083 15.1074 6.46563C15.0768 5.81223 14.9742 5.36583 14.8212 4.97343C14.6646 4.57203 14.454 4.22823 14.112 3.88803C13.77 3.54603 13.428 3.33723 13.023 3.17883C12.6324 3.02763 12.186 2.92323 11.5308 2.89263C10.8774 2.86383 10.6686 2.85663 9 2.85663Z" fill="white"/>
<path d="M9 5.8446C7.2576 5.8446 5.8446 7.2576 5.8446 9C5.8446 10.7424 7.2576 12.1554 9 12.1554C10.7424 12.1554 12.1554 10.7424 12.1554 9C12.1554 7.2576 10.7424 5.8446 9 5.8446ZM9 11.0484C7.8696 11.0484 6.9516 10.1322 6.9516 9C6.9516 7.8678 7.8696 6.9516 9 6.9516C10.1304 6.9516 11.0484 7.8678 11.0484 9C11.0484 10.1322 10.1304 11.0484 9 11.0484Z" fill="white"/>
<path d="M12.2796 6.45842C12.6872 6.45842 13.0176 6.12801 13.0176 5.72042C13.0176 5.31284 12.6872 4.98242 12.2796 4.98242C11.872 4.98242 11.5416 5.31284 11.5416 5.72042C11.5416 6.12801 11.872 6.45842 12.2796 6.45842Z" fill="white"/>
</g>
<defs>
<linearGradient id="paint0_linear_14_60" x1="2.63604" y1="15.364" x2="15.364" y2="2.63604" gradientUnits="userSpaceOnUse">
<stop stop-color="#FFD521"/>
<stop offset="0.0551048" stop-color="#FFD020"/>
<stop offset="0.1241" stop-color="#FEC01E"/>
<stop offset="0.2004" stop-color="#FCA71B"/>
<stop offset="0.2821" stop-color="#FA8316"/>
<stop offset="0.3681" stop-color="#F85510"/>
<stop offset="0.4563" stop-color="#F51E09"/>
<stop offset="0.5" stop-color="#F30005"/>
<stop offset="0.5035" stop-color="#F20007"/>
<stop offset="0.5966" stop-color="#E1003B"/>
<stop offset="0.6879" stop-color="#D30067"/>
<stop offset="0.7757" stop-color="#C70088"/>
<stop offset="0.8589" stop-color="#BF00A0"/>
<stop offset="0.9357" stop-color="#BB00AF"/>
<stop offset="1" stop-color="#B900B4"/>
</linearGradient>
<clipPath id="clip0_14_60">
<rect width="18" height="18" fill="white"/>
</clipPath>
</defs>
</svg>
