<svg width="12" height="12" viewBox="0 0 12 12" fill="none" xmlns="http://www.w3.org/2000/svg">
<g clip-path="url(#clip0_5_17)">
<path d="M3.5625 2.8125C2.94117 2.8125 2.4375 3.31617 2.4375 3.9375C2.4375 4.55883 2.94117 5.0625 3.5625 5.0625C4.18383 5.0625 4.6875 4.55883 4.6875 3.9375C4.6875 3.31617 4.18359 2.8125 3.5625 2.8125ZM10.4789 0.75H1.47891C0.671484 0.75 -0.000213623 1.42148 -0.000213623 2.25V9.75C-0.000213623 10.5785 0.671271 11.25 1.47869 11.25H10.4787C11.3072 11.25 11.9787 10.5785 11.9787 9.75V2.25C11.9789 1.42148 11.3273 0.75 10.4789 0.75ZM10.8539 9.59297L7.64766 5.23594C7.58906 5.12812 7.45547 5.0625 7.3125 5.0625C7.16923 5.0625 7.03547 5.12738 6.95602 5.23545L4.45758 8.61279L3.58828 7.53232C3.50763 7.43203 3.37889 7.37273 3.24211 7.37273C3.10519 7.37273 2.97656 7.43201 2.8957 7.53232L1.1257 9.73099C1.1257 9.73031 1.1257 9.73168 1.1257 9.73099L1.12477 2.25C1.12477 2.04323 1.293 1.875 1.49977 1.875H10.4998C10.7065 1.875 10.8748 2.04323 10.8748 2.25V9.59297H10.8539Z" fill="white"/>
</g>
<defs>
<clipPath id="clip0_5_17">
<rect width="12" height="12" fill="white"/>
</clipPath>
</defs>
</svg>
